<svg width="960" height="720" viewBox="0 0 960 720" fill="none" xmlns="http://www.w3.org/2000/svg">
<rect width="960" height="720" rx="36" fill="#07111F"/>
<rect width="960" height="720" rx="36" fill="url(#bg)"/>
<circle cx="188" cy="148" r="164" fill="#35C2FF" fill-opacity="0.22"/>
<circle cx="776" cy="130" r="180" fill="#7B61FF" fill-opacity="0.2"/>
<circle cx="754" cy="594" r="204" fill="#35E0A1" fill-opacity="0.14"/>
<rect x="84" y="86" width="792" height="548" rx="28" fill="#0B1728" fill-opacity="0.72" stroke="#DDF4FF" stroke-opacity="0.14"/>
<path d="M154 518C240 442.667 331.667 392.667 429 368C526.333 343.333 628.333 341.667 735 363C779 372.333 822.667 386.667 866 406" stroke="#294C71" stroke-width="4"/>
<path d="M151 242C211.667 282.667 278 313.667 350 335C422 356.333 492.333 363.667 561 357C629.667 350.333 700.333 328.667 773 292C810.333 273.333 847.667 251.667 885 227" stroke="#223D5C" stroke-width="4"/>
<rect x="164" y="164" width="250" height="174" rx="24" fill="#0E2139"/>
<rect x="202" y="204" width="70" height="98" rx="16" fill="#46D6FF"/>
<rect x="284" y="168" width="70" height="134" rx="16" fill="#7B61FF"/>
<path d="M214 332H364" stroke="#DDF7FF" stroke-width="12" stroke-linecap="round"/>
<path d="M202 208L254 248L316 214L354 176" stroke="#FFD166" stroke-width="12" stroke-linecap="round" stroke-linejoin="round"/>
<rect x="492" y="148" width="290" height="214" rx="28" fill="#0E2139"/>
<rect x="532" y="194" width="80" height="60" rx="14" fill="#35E0A1"/>
<rect x="622" y="194" width="120" height="60" rx="14" fill="#46D6FF"/>
<rect x="532" y="272" width="210" height="18" rx="9" fill="#DDF7FF" fill-opacity="0.92"/>
<rect x="532" y="306" width="172" height="18" rx="9" fill="#B9E9FF" fill-opacity="0.82"/>
<rect x="188" y="408" width="594" height="154" rx="28" fill="#0C1C31"/>
<path d="M244 482H411" stroke="#DDF7FF" stroke-width="18" stroke-linecap="round"/>
<path d="M244 526H512" stroke="#A5E6FF" stroke-width="14" stroke-linecap="round"/>
<path d="M610 453L653 486L716 434" stroke="#35E0A1" stroke-width="16" stroke-linecap="round" stroke-linejoin="round"/>
<circle cx="666" cy="482" r="58" stroke="#7B61FF" stroke-width="12"/>
<defs>
<linearGradient id="bg" x1="56" y1="32" x2="890" y2="676" gradientUnits="userSpaceOnUse">
<stop stop-color="#1C2F68"/>
<stop offset="0.38" stop-color="#1E4C89"/>
<stop offset="0.72" stop-color="#115E7A"/>
<stop offset="1" stop-color="#0E6658"/>
</linearGradient>
</defs>
</svg>
