<svg width="800" height="560" viewBox="0 0 800 560" fill="none" xmlns="http://www.w3.org/2000/svg">
<rect width="800" height="560" rx="32" fill="#08121F"/>
<rect width="800" height="560" rx="32" fill="url(#bg)"/>
<circle cx="144" cy="430" r="138" fill="#35E0A1" fill-opacity="0.2"/>
<circle cx="650" cy="128" r="132" fill="#35C2FF" fill-opacity="0.22"/>
<rect x="82" y="76" width="636" height="408" rx="28" fill="#0B1728" fill-opacity="0.72" stroke="#DDF4FF" stroke-opacity="0.14"/>
<rect x="130" y="130" width="174" height="112" rx="22" fill="#10253F"/>
<path d="M170 187H264" stroke="#DDF7FF" stroke-width="14" stroke-linecap="round"/>
<path d="M170 159H232" stroke="#7B61FF" stroke-width="14" stroke-linecap="round"/>
<rect x="314" y="130" width="174" height="112" rx="22" fill="#10253F"/>
<path d="M354 186H446" stroke="#DDF7FF" stroke-width="14" stroke-linecap="round"/>
<path d="M354 158H430" stroke="#35C2FF" stroke-width="14" stroke-linecap="round"/>
<rect x="498" y="130" width="174" height="112" rx="22" fill="#10253F"/>
<path d="M538 186H632" stroke="#DDF7FF" stroke-width="14" stroke-linecap="round"/>
<path d="M538 158H610" stroke="#35E0A1" stroke-width="14" stroke-linecap="round"/>
<path d="M217 242V308H585V242" stroke="#294C71" stroke-width="10" stroke-linecap="round"/>
<rect x="210" y="308" width="382" height="126" rx="24" fill="#0E2139"/>
<path d="M264 368H536" stroke="#DDF7FF" stroke-width="16" stroke-linecap="round"/>
<path d="M264 404H486" stroke="#A8E8FF" stroke-width="12" stroke-linecap="round"/>
<circle cx="562" cy="370" r="22" fill="#FFD166"/>
<defs>
<linearGradient id="bg" x1="42" y1="34" x2="742" y2="520" gradientUnits="userSpaceOnUse">
<stop stop-color="#20386F"/>
<stop offset="0.4" stop-color="#1A4D87"/>
<stop offset="0.78" stop-color="#176D73"/>
<stop offset="1" stop-color="#0F694F"/>
</linearGradient>
</defs>
</svg>
