<svg width="800" height="560" viewBox="0 0 800 560" fill="none" xmlns="http://www.w3.org/2000/svg">
<rect width="800" height="560" rx="32" fill="#081220"/>
<rect width="800" height="560" rx="32" fill="url(#bg)"/>
<circle cx="136" cy="112" r="116" fill="#35C2FF" fill-opacity="0.22"/>
<circle cx="664" cy="120" r="126" fill="#7B61FF" fill-opacity="0.18"/>
<rect x="88" y="88" width="624" height="384" rx="26" fill="#0B1728" fill-opacity="0.7" stroke="#DDF4FF" stroke-opacity="0.14"/>
<path d="M222 234L288 170L350 230L444 136" stroke="#FFD166" stroke-width="14" stroke-linecap="round" stroke-linejoin="round"/>
<circle cx="222" cy="234" r="14" fill="#46D6FF"/>
<circle cx="288" cy="170" r="14" fill="#7B61FF"/>
<circle cx="350" cy="230" r="14" fill="#35E0A1"/>
<circle cx="444" cy="136" r="14" fill="#FFD166"/>
<rect x="156" y="302" width="154" height="94" rx="20" fill="#10253F"/>
<path d="M190 348H276" stroke="#DDF7FF" stroke-width="12" stroke-linecap="round"/>
<path d="M208 326L232 344L260 312" stroke="#35E0A1" stroke-width="12" stroke-linecap="round" stroke-linejoin="round"/>
<rect x="362" y="282" width="194" height="132" rx="24" fill="#10253F"/>
<path d="M460 312L516 336V372C516 415 490 449 460 462C430 449 404 415 404 372V336L460 312Z" stroke="#DDF7FF" stroke-width="14" stroke-linejoin="round"/>
<path d="M438 370L455 387L486 354" stroke="#46D6FF" stroke-width="14" stroke-linecap="round" stroke-linejoin="round"/>
<defs>
<linearGradient id="bg" x1="48" y1="28" x2="744" y2="520" gradientUnits="userSpaceOnUse">
<stop stop-color="#213B82"/>
<stop offset="0.42" stop-color="#1B5B8D"/>
<stop offset="0.75" stop-color="#136A74"/>
<stop offset="1" stop-color="#0E6E59"/>
</linearGradient>
</defs>
</svg>
