<svg width="1200" height="760" viewBox="0 0 1200 760" fill="none" xmlns="http://www.w3.org/2000/svg">
  <rect width="1200" height="760" rx="36" fill="#0A111D"/>
  <rect x="56" y="56" width="1088" height="648" rx="32" fill="url(#paint0_linear)"/>
  <rect x="118" y="128" width="964" height="110" rx="26" fill="#F6F9FD" fill-opacity="0.97"/>
  <rect x="162" y="170" width="220" height="24" rx="12" fill="#D5E3F2"/>
  <rect x="814" y="156" width="210" height="54" rx="18" fill="#15263D"/>
  <circle cx="870" cy="183" r="17" fill="#55D6FF"/>
  <rect x="898" y="173" width="82" height="18" rx="9" fill="#FF8A5B"/>
  <rect x="118" y="274" width="446" height="368" rx="28" fill="#0F1827"/>
  <path d="M178 552C224 488 272 456 322 456C384 456 416 520 468 520C503 520 531 501 548 480" stroke="#55D6FF" stroke-width="18" stroke-linecap="round"/>
  <circle cx="224" cy="520" r="16" fill="#55D6FF"/>
  <circle cx="356" cy="466" r="16" fill="#8B7CFF"/>
  <circle cx="468" cy="520" r="16" fill="#FF8A5B"/>
  <rect x="624" y="274" width="458" height="172" rx="28" fill="#F6F9FD"/>
  <rect x="668" y="322" width="202" height="20" rx="10" fill="#8B7CFF"/>
  <rect x="668" y="360" width="140" height="16" rx="8" fill="#6EE7B7"/>
  <rect x="624" y="470" width="142" height="172" rx="28" fill="#19314D"/>
  <rect x="782" y="470" width="142" height="172" rx="28" fill="#F6F9FD"/>
  <rect x="940" y="470" width="142" height="172" rx="28" fill="#102038"/>
  <rect x="662" y="520" width="66" height="74" rx="20" fill="#6EE7B7"/>
  <rect x="820" y="520" width="66" height="74" rx="20" fill="#8B7CFF"/>
  <rect x="978" y="520" width="66" height="74" rx="20" fill="#FF8A5B"/>
  <defs>
    <linearGradient id="paint0_linear" x1="112" y1="96" x2="1078" y2="664" gradientUnits="userSpaceOnUse">
      <stop stop-color="#13233B"/>
      <stop offset="1" stop-color="#0B1422"/>
    </linearGradient>
  </defs>
</svg>
